# xmcd
#
# Track frame offsets:
#	150
#	12748
#	23007
#	36526
#	50083
#	63350
#	75903
#	90153
#	105726
#	120482
#	136599
#	152208
#	164929
#	179262
#	191130
#
# Disc length: 2713 seconds
#
# Revision: 1
# Processed by: cddbd v1.5.1PL0 Copyright (c) Steve Scherf et al.
# Submitted via: audiograbber 1.83.01
#
DISCID=c40a970f
DTITLE=Tammy Wynette - CB90072
DYEAR=1900
DGENRE=Karaoke Country
TTITLE0=Stand By Your Man
TTITLE1=Your Good Girl's Gonna Go Bad
TTITLE2=Another Lonely Song
TTITLE3=D I V O R C E
TTITLE4=Apartment #9
TTITLE5=I Don't Wanna Play House
TTITLE6=I'll See Him Through
TTITLE7=One Of A Kind
TTITLE8=Till I Can Make It On My Own
TTITLE9=You and Me
TTITLE10=Kids Say The Darndest Things
TTITLE11=Till I Get It Right
TTITLE12=Womanhood
TTITLE13=Singing My Song
TTITLE14=Ways To Love A Man, The
EXTD=Chartbusters
EXTT0=
EXTT1=
EXTT2=
EXTT3=
EXTT4=
EXTT5=
EXTT6=
EXTT7=
EXTT8=
EXTT9=
EXTT10=
EXTT11=
EXTT12=
EXTT13=
EXTT14=
PLAYORDER=
